<svg width="240" height="240" viewBox="0 0 240 240" fill="none" xmlns="http://www.w3.org/2000/svg">
<path d="M127.584 109.572C127.14 109.572 126.648 109.956 126.732 110.46C126.843 110.757 127.056 111.003 127.334 111.155C127.611 111.307 127.934 111.354 128.244 111.288C129.24 110.94 128.7 109.392 127.584 109.572ZM128.172 111.06C127.96 111.062 127.75 111.016 127.558 110.924C127.367 110.833 127.199 110.699 127.068 110.532C126.756 109.932 128.124 109.488 128.46 110.328C128.516 110.464 128.518 110.616 128.464 110.753C128.41 110.89 128.305 111 128.172 111.06ZM168.228 150.9C168.228 150.744 167.964 150.732 167.964 150.9C167.964 151.248 168.18 153.228 168.12 153.3C167.662 153.509 167.193 153.693 166.716 153.852C166.548 153.936 166.716 154.164 166.836 154.128C167.219 154.054 167.596 153.95 167.964 153.816C168.276 153.708 168.624 153.612 168.672 153.216C168.696 153 168.24 151.32 168.228 150.9ZM162 159C161.568 161.652 163.62 162.84 165.408 159.84C165.597 159.531 165.719 159.185 165.764 158.825C165.81 158.465 165.778 158.099 165.672 157.752C165.18 156.444 162.36 156.588 162 159ZM34.3076 74.7363C42.9356 48.0003 48.6116 44.3283 52.2356 30.6243C52.2341 30.594 52.223 30.565 52.204 30.5413C52.185 30.5177 52.159 30.5007 52.1297 30.4927C52.1004 30.4847 52.0694 30.4862 52.041 30.4969C52.0126 30.5076 51.9883 30.527 51.9716 30.5523C48.3716 43.8243 39.0236 55.4283 33.9716 74.6523C33.9661 74.6744 33.965 74.6973 33.9683 74.7198C33.9717 74.7423 33.9794 74.7639 33.9911 74.7834C34.0028 74.8029 34.0182 74.8199 34.0365 74.8335C34.0548 74.847 34.0755 74.8568 34.0976 74.8623C34.1197 74.8678 34.1426 74.8689 34.1651 74.8656C34.1876 74.8623 34.2092 74.8545 34.2287 74.8428C34.2482 74.8311 34.2652 74.8157 34.2787 74.7974C34.2923 74.7791 34.3021 74.7584 34.3076 74.7363ZM86.3996 45.3963C84.7824 55.1752 82.3745 64.8068 79.1996 74.1963C79.1156 74.4243 79.4636 74.5083 79.5476 74.3043C82.9611 64.9659 85.3746 55.2918 86.7476 45.4443C86.7116 45.2763 86.3996 45.1923 86.3996 45.3963ZM119.22 98.5323C121.836 91.6544 123.237 84.374 123.36 77.0163C123.35 76.9837 123.331 76.955 123.304 76.9346C123.276 76.9142 123.244 76.9032 123.21 76.9032C123.176 76.9032 123.143 76.9142 123.116 76.9346C123.089 76.955 123.069 76.9837 123.06 77.0163C122.863 84.3255 121.456 91.5515 118.896 98.4003C118.8 98.6643 119.148 98.7363 119.22 98.5323ZM184.704 84.4563C184.583 89.9898 185.017 95.5215 186 100.968C186.01 101.01 186.034 101.046 186.068 101.072C186.102 101.098 186.143 101.113 186.186 101.113C186.228 101.113 186.27 101.098 186.303 101.072C186.337 101.046 186.361 101.01 186.372 100.968C185.82 95.4603 185.064 90.0483 184.98 84.5043C184.971 84.4763 184.956 84.4511 184.934 84.4317C184.912 84.4122 184.885 84.3993 184.857 84.3943C184.828 84.3893 184.798 84.3924 184.771 84.4034C184.744 84.4144 184.721 84.4327 184.704 84.4563ZM217.2 104.244C212.88 92.3763 210.36 83.5203 210.48 70.1163C210.471 70.0866 210.453 70.0605 210.428 70.042C210.403 70.0235 210.373 70.0134 210.342 70.0134C210.311 70.0134 210.28 70.0235 210.256 70.042C210.231 70.0605 210.212 70.0866 210.204 70.1163C210 81.6003 211.86 93.9363 216.804 104.4C216.888 104.604 217.2 104.46 217.2 104.244ZM148.8 26.1483C149.028 25.7763 149.028 25.0803 148.632 25.1883C148.236 25.2963 148.26 25.5723 148.26 25.8963C148.251 25.9623 148.263 26.0294 148.295 26.0878C148.327 26.1463 148.376 26.193 148.437 26.2212C148.497 26.2493 148.565 26.2574 148.63 26.2443C148.695 26.2312 148.755 26.1976 148.8 26.1483ZM162.876 33.8043C162.876 33.5283 162.636 33.2163 162.336 33.3243C162.213 33.358 162.109 33.4388 162.046 33.549C161.983 33.6591 161.966 33.7898 162 33.9123C162.037 34.0062 162.104 34.085 162.191 34.1366C162.278 34.1881 162.379 34.2093 162.479 34.197C162.58 34.1846 162.673 34.1394 162.745 34.0683C162.816 33.9972 162.862 33.9044 162.876 33.8043ZM229.296 168.252C225.649 167.859 221.984 167.65 218.316 167.628C216.792 167.628 214.536 167.472 213.216 168.516C214.176 162.684 207.732 157.116 199.068 160.716C197.274 161.463 195.6 162.47 194.1 163.704C192.944 164.722 192.037 165.99 191.448 167.412C185.916 163.692 179.916 169.944 183.048 173.088C180.462 172.524 177.785 172.524 175.2 173.088C173.436 173.46 170.136 174.456 170.4 176.88C170.664 179.304 174.132 179.28 175.944 179.376C190.26 180.204 206.184 180.576 220.344 178.176C221.881 178.103 223.365 177.586 224.616 176.688C225.057 176.268 225.336 175.706 225.404 175.1C225.473 174.494 225.325 173.884 224.988 173.376C226.435 173.294 227.873 173.085 229.284 172.752C230.568 172.44 232.62 172.104 233.556 171.036C235.596 168.684 230.28 168.384 229.296 168.252ZM228.288 172.476C224.568 173.256 223.128 172.548 223.128 172.98C223.128 173.412 226.116 174.3 224.268 176.364C222.888 177.924 217.32 178.236 215.592 178.452C212.628 178.836 209.652 179.1 206.7 179.28C202.968 179.496 174.552 179.472 172.14 178.224C170.22 177.24 171.024 175.344 172.596 174.456C174.768 173.256 179.796 172.524 184.596 174.072C184.932 174.18 185.052 173.676 184.74 173.556C182.124 172.572 182.244 170.16 184.008 168.396C186.168 166.236 189.204 166.608 191.628 168.168C192.24 168.528 192.144 166.74 193.032 165.66C195.703 162.5 199.508 160.514 203.628 160.128C210.396 159.684 214.02 165.036 212.472 169.488C212.376 169.752 212.808 169.932 212.928 169.68C213.804 167.856 216.624 168.084 218.328 168.12C220.488 168.12 229.008 168.612 231.108 168.948C233.748 169.464 234.516 171.18 228.288 172.476ZM108.228 208.98C106.519 208.145 104.656 207.675 102.756 207.6C100.044 207.288 97.3436 207.012 94.6196 206.844C88.8632 206.439 83.0815 206.58 77.3516 207.264C75.0596 207.648 76.2716 207.96 77.0756 206.064C78.0236 203.88 76.8116 201.336 75.0356 199.968C70.7996 196.8 64.1036 198 59.5676 200.268C59.9691 199.372 60.1187 198.384 60.0003 197.409C59.8819 196.434 59.5 195.51 58.8956 194.736C57.0596 192.24 53.5916 191.136 50.6636 190.776C43.1636 189.756 39.0596 194.64 39.7916 199.092C32.0156 196.764 29.6876 202.512 32.3396 205.092C30.2018 204.52 27.9482 204.545 25.8236 205.164C24.3236 205.692 23.1596 207.264 23.7356 208.764C22.1756 208.188 19.9676 208.656 18.5156 208.896C15.539 209.382 12.6306 210.22 9.85161 211.392C8.85561 211.812 5.95161 212.832 5.99961 214.308C5.99961 216.168 24.5636 216.708 30.5396 215.712C29.9036 217.152 31.2116 218.112 32.7836 218.592C38.1103 219.85 43.705 219.284 48.6716 216.984C50.8196 216.012 51.9236 217.656 60.7796 218.952C65.2837 219.548 69.8588 219.316 74.2796 218.268C75.6956 217.956 77.8076 217.584 78.7436 216.348C78.9721 216.071 79.1097 215.729 79.1376 215.371C79.1655 215.012 79.0824 214.654 78.8996 214.344C81.5409 214.512 84.1903 214.512 86.8316 214.344C90.2996 214.344 93.7556 214.344 97.2236 214.14C100.08 213.936 108.6 213.924 109.524 211.596C109.92 210.444 109.032 209.46 108.228 208.98ZM106.284 212.58C102.216 213.48 81.9116 214.236 78.0956 213.588C78.0293 213.579 77.9619 213.595 77.906 213.632C77.8502 213.669 77.8097 213.725 77.7921 213.789C77.7744 213.854 77.7809 213.923 77.8103 213.983C77.8396 214.043 77.8898 214.09 77.9516 214.116C79.2836 214.62 78.2636 216.012 77.6756 216.432C77.3396 216.684 74.0756 218.208 68.5196 218.616C63.8782 218.855 59.2277 218.377 54.7316 217.2C53.0552 216.68 51.3529 216.248 49.6316 215.904C47.8376 216.853 45.9414 217.593 43.9796 218.112C40.5236 218.904 29.1836 219.228 31.2236 215.556C31.5836 215.496 31.3556 214.788 31.0076 215.076C25.0676 216.132 9.81561 215.532 7.58361 214.632C5.89161 213.936 7.06761 213.432 7.95561 212.832C10.6278 211.358 13.515 210.314 16.5116 209.736C18.5036 209.28 22.4156 208.14 24.2756 209.52C24.4916 209.688 24.7316 209.34 24.5516 209.16C23.1716 207.696 24.6956 205.968 26.1476 205.56C29.2852 204.953 32.5321 205.283 35.4836 206.508C35.7236 206.604 35.8316 206.196 35.5916 206.136C32.9276 205.248 31.8356 204.048 31.7996 202.776C31.7979 202.16 31.9646 201.554 32.2818 201.026C32.5991 200.497 33.0547 200.065 33.5996 199.776C35.5796 198.576 37.9916 199.08 40.0676 199.776C40.1148 199.786 40.1636 199.783 40.2095 199.768C40.2554 199.754 40.2969 199.728 40.3303 199.694C40.3637 199.659 40.3879 199.617 40.4007 199.57C40.4135 199.524 40.4145 199.475 40.4036 199.428C40.1654 198.25 40.2642 197.028 40.6887 195.903C41.1132 194.778 41.8462 193.796 42.8036 193.068C46.5236 189.948 53.5076 191.172 56.9036 193.56C59.1716 195.18 60.5036 198.432 58.5716 200.844C58.3796 201.072 58.5716 201.468 58.9196 201.288C62.6112 199.049 66.995 198.238 71.2436 199.008C76.6436 200.124 77.9636 204.48 75.7916 207C75.1436 207.672 73.8116 207.78 73.7756 208.02C73.6076 209.052 79.4876 207.048 87.6596 207.204C92.898 207.292 98.1287 207.645 103.332 208.26C104.94 208.452 108.132 208.68 108.936 210.372C109.596 211.836 107.268 212.4 106.284 212.556V212.58ZM160.14 50.4003C158.94 50.7243 157.224 51.3843 156.888 52.8003C156.612 54.0003 157.584 54.5163 158.58 54.6723C162.072 55.2243 167.544 54.5283 168.936 54.5043C169.948 54.6003 170.932 54.8982 171.828 55.3803C173.859 56.1137 176.025 56.396 178.176 56.2074C180.327 56.0188 182.411 55.3639 184.284 54.2883C185.208 53.7483 185.772 53.0883 186.876 53.0883C189.18 52.9563 191.448 53.0883 193.74 52.7043C195.54 52.4283 198.168 52.2243 199.668 51.1083C199.844 51.0034 199.997 50.8621 200.115 50.6938C200.233 50.5255 200.314 50.3341 200.353 50.1322C200.391 49.9303 200.386 49.7224 200.339 49.5225C200.291 49.3225 200.201 49.135 200.076 48.9723C199.068 47.7003 193.848 47.0043 188.304 47.0643C187.104 47.0643 184.056 47.4363 184.056 47.4363C183.048 41.9043 176.16 41.5083 173.892 46.2363C173.314 46.0037 172.685 45.9252 172.068 46.0083C170.652 46.1763 169.86 48.0723 170.016 49.2483C168.929 49.2563 167.887 49.6866 167.112 50.4483C166.44 51.1083 166.236 50.8563 165.36 50.5683C163.672 50.0095 161.859 49.9511 160.14 50.4003ZM166.596 51.4923C166.644 51.5167 166.7 51.5228 166.753 51.5096C166.806 51.4964 166.852 51.4647 166.884 51.4203C167.408 50.5678 168.246 49.9547 169.217 49.7125C170.189 49.4702 171.216 49.6181 172.08 50.1243C172.284 50.2443 172.452 49.9323 172.248 49.8123C171.684 49.4741 171.053 49.2651 170.4 49.2003C170.4 47.0163 172.128 45.6003 174 46.8003C174.03 46.8182 174.063 46.829 174.098 46.8319C174.133 46.8348 174.168 46.8296 174.2 46.8169C174.232 46.8041 174.262 46.7841 174.285 46.7583C174.309 46.7326 174.326 46.7018 174.336 46.6683C174.667 45.6263 175.344 44.7287 176.256 44.1241C177.167 43.5195 178.257 43.2441 179.346 43.3435C180.435 43.4429 181.457 43.9111 182.244 44.6706C183.03 45.4302 183.534 46.4355 183.672 47.5203C183.687 47.5689 183.717 47.6113 183.758 47.6415C183.799 47.6717 183.849 47.6881 183.9 47.6883C187.056 47.3364 190.241 47.3083 193.404 47.6043C197.004 47.8563 202.068 48.8043 199.104 50.7483C196.92 52.2363 190.764 52.5243 187.752 52.4763C186.384 52.4763 186.228 52.2603 185.208 53.0043C183.629 54.1368 181.835 54.934 179.936 55.3467C178.037 55.7595 176.074 55.7791 174.168 55.4043C172.877 55.0709 171.616 54.6293 170.4 54.0843C169.448 53.8681 168.459 53.8681 167.508 54.0843C165.912 54.2043 159.456 54.5763 158.34 54.0843C155.7 52.8843 158.916 51.2523 159.612 51.0003C160.746 50.6044 161.948 50.4387 163.147 50.5128C164.346 50.587 165.519 50.8996 166.596 51.4323V51.4923ZM79.4636 31.7163C80.9735 31.6259 82.4636 31.327 83.8916 30.8283C83.8916 32.2683 88.0676 33.7323 91.9676 32.0283L93.5996 31.2003C94.6946 31.5345 95.8086 31.803 96.9356 32.0043C101.227 32.5863 105.591 32.3131 109.776 31.2003C110.868 30.8643 112.488 30.4563 112.836 29.1723C112.923 28.6555 112.844 28.1242 112.609 27.6558C112.373 27.1874 111.995 26.8064 111.528 26.5683C110.243 26.0507 108.813 26.0208 107.508 26.4843C106.701 25.0757 105.428 23.9933 103.908 23.4243C102.706 23.0469 101.427 22.9913 100.197 23.2629C98.9673 23.5345 97.8303 24.1239 96.8996 24.9723C96.3388 24.1582 95.5579 23.5206 94.6482 23.1338C93.7384 22.7471 92.7374 22.6273 91.7621 22.7884C90.7867 22.9495 89.8774 23.3848 89.1403 24.0435C88.4032 24.7022 87.8688 25.5571 87.5996 26.5083C87.1392 26.5355 86.6891 26.6559 86.2765 26.8622C85.864 27.0684 85.4976 27.3563 85.1996 27.7083C82.9451 26.977 80.5415 26.8325 78.2156 27.2883C76.9436 27.5523 74.6156 28.0923 73.8116 29.3523C72.3236 31.8483 78.3356 31.7883 79.4636 31.7163ZM85.3556 28.2003C85.3958 28.2118 85.4387 28.2097 85.4777 28.1946C85.5167 28.1794 85.5497 28.1519 85.5716 28.1163C85.8174 27.7806 86.127 27.4967 86.4825 27.2806C86.8381 27.0646 87.2327 26.9207 87.6439 26.8572C88.0551 26.7936 88.4748 26.8117 88.879 26.9104C89.2832 27.0091 89.664 27.1864 89.9996 27.4323C90.1196 27.5283 90.2876 27.3123 90.1676 27.2163C89.6044 26.7805 88.9225 26.5253 88.2116 26.4843C88.5307 25.6587 89.0718 24.9374 89.7752 24.4002C90.4786 23.8629 91.3168 23.5306 92.1972 23.4399C93.0777 23.3493 93.9661 23.5038 94.7642 23.8865C95.5623 24.2692 96.239 24.8651 96.7196 25.6083C96.742 25.6381 96.7709 25.6623 96.8043 25.679C96.8376 25.6956 96.8744 25.7043 96.9116 25.7043C96.9489 25.7043 96.9856 25.6956 97.0189 25.679C97.0523 25.6623 97.0812 25.6381 97.1036 25.6083C98.205 24.3865 99.7465 23.6521 101.389 23.5666C103.032 23.4811 104.641 24.0515 105.864 25.1523C107.232 26.3523 107.064 27.1443 107.52 27.0363C108.72 26.7243 110.232 26.2083 111.336 26.9283C113.184 28.1283 112.536 29.8563 110.52 30.5283C107.142 31.544 103.611 31.9504 100.092 31.7283C98.0516 31.6443 95.5196 31.6323 93.6956 30.6123C93.6619 30.5896 93.6222 30.5775 93.5816 30.5775C93.541 30.5775 93.5013 30.5896 93.4676 30.6123C92.1896 31.5879 90.6641 32.1865 89.0636 32.3403C87.6236 32.4723 84.6236 32.3403 84.4436 30.4083C84.4426 30.3764 84.4346 30.3452 84.4201 30.3167C84.4056 30.2883 84.385 30.2635 84.3598 30.244C84.3345 30.2245 84.3053 30.2108 84.2741 30.2039C84.243 30.1971 84.2107 30.1972 84.1796 30.2043C82.5313 30.9184 80.7662 31.3251 78.9716 31.4043C77.6682 31.3931 76.3695 31.2483 75.0956 30.9723C71.7116 30.0003 77.8916 25.5363 85.3556 28.2003ZM162.372 146.4C162.354 146.368 162.328 146.34 162.297 146.321C162.265 146.302 162.229 146.292 162.192 146.292C162.155 146.292 162.118 146.302 162.087 146.321C162.055 146.34 162.029 146.368 162.012 146.4C161.864 146.727 161.806 147.088 161.844 147.444C161.821 147.809 161.866 148.175 161.976 148.524C162.084 148.776 162.492 148.68 162.408 148.404C162.192 147.384 162.588 147.12 162.372 146.4ZM171.3 145.2C171.268 145.181 171.232 145.17 171.195 145.169C171.158 145.169 171.122 145.178 171.09 145.197C171.057 145.215 171.031 145.242 171.013 145.274C170.995 145.307 170.986 145.343 170.988 145.38C170.988 145.776 171.468 146.268 171.408 147.36C171.408 147.418 171.43 147.473 171.471 147.513C171.511 147.554 171.566 147.576 171.624 147.576C171.681 147.576 171.736 147.554 171.776 147.513C171.817 147.473 171.84 147.418 171.84 147.36C172.008 146.736 171.876 145.488 171.3 145.2Z" fill="#8B9198"/>
<path d="M218.988 109.848C218.844 109.416 216.732 109.5 215.928 109.608C216.792 109.188 217.692 108 217.416 107.7C216.84 107.052 215.472 107.7 214.512 108.144C215.136 107.472 215.772 106.56 214.776 106.452C213.78 106.344 212.376 107.544 211.656 107.988C210.559 108.668 209.548 109.478 208.644 110.4C208.572 110.256 208.488 110.124 208.416 109.992C208.389 109.949 208.348 109.916 208.301 109.899C208.253 109.881 208.2 109.88 208.152 109.896C205.38 110.868 203.028 109.788 196.68 110.904C191.532 111.828 189.768 113.832 187.152 115.332C183.264 117.576 180.42 115.332 175.02 116.652C172.524 117.3 170.964 118.476 168.468 119.88C166.608 117.912 161.268 117.24 161.268 117.216C142.464 104.568 117.48 96.42 95.5321 106.008C92.0642 107.503 88.8307 109.492 85.9321 111.912C84.3644 111.516 82.7369 111.414 81.1321 111.612C78.5041 111.876 77.8441 110.664 76.1641 109.728C73.7641 108.36 70.8361 108.732 68.1361 109.14C68.6081 108.148 68.978 107.111 69.2401 106.044C69.3121 104.124 66.0721 103.116 69.3721 96.444C69.8908 95.5901 70.2107 94.6304 70.3081 93.636C70.3081 92.184 69.3241 90.936 68.7961 89.58C67.1641 85.416 69.9961 83.34 70.3561 80.448C70.5961 78.216 69.3001 76.32 69.2881 73.848C69.2881 73.152 69.6961 72.444 69.5761 71.784C68.8106 71.5797 68.0331 71.4234 67.2481 71.316C67.2481 70.896 67.2481 70.488 67.1881 70.116H67.3801C68.1001 69.492 69.5281 65.676 68.2801 64.188C67.8601 63.672 56.1001 58.296 55.4881 60.588C55.2121 61.656 56.1961 62.772 57.1201 63.384C60.6241 65.676 60.3601 67.884 61.2241 68.064C61.0081 68.772 60.7801 69.468 60.5281 70.164C60.0137 70.0832 59.4876 70.1243 58.9921 70.284C57.9121 70.764 58.2481 71.628 58.0321 72.684C57.3241 76.572 54.1921 80.232 52.6321 83.844C51.8425 86.0475 51.3894 88.3575 51.2881 90.696C50.8201 94.524 51.8761 99.024 50.5321 102.6C49.8991 104.043 49.1778 105.446 48.3721 106.8C46.1041 111.132 46.2241 116.1 47.7001 118.968C48.1921 119.892 48.9001 120.672 49.4761 121.548C50.5201 123.132 50.6761 125.916 51.7921 127.248C52.5841 128.172 54.6001 128.448 56.1601 128.448C56.9401 128.04 57.6961 127.56 58.4521 127.248C62.0521 125.52 63.7321 128.304 66.8521 127.416C69.0361 126.792 70.8961 125.1 73.2841 125.58C73.4401 125.58 73.3681 125.844 73.2121 125.82C70.4041 125.28 68.4121 127.824 65.7241 128.1C64.2481 128.256 62.9881 127.476 61.5601 127.308C59.6281 127.068 58.0921 128.064 56.4841 128.964C53.5441 130.596 49.2841 129.588 46.2601 130.8C45.9121 130.956 42.0721 132.78 42.0841 132.792C41.2081 130.776 41.8201 128.484 42.0841 126.3C42.685 123.501 42.5985 120.598 41.8321 117.84C41.2181 116.356 40.5251 114.906 39.7561 113.496C37.8481 108.696 40.8121 103.632 40.0561 99.096C39.6001 97.2 38.4001 95.832 38.2561 92.772C38.2561 91.956 38.5921 91.104 38.5081 90.372C38.0233 90.2068 37.5256 90.0823 37.0201 90V88.344C37.2841 88.428 37.3321 88.272 37.3561 88.224C38.0563 87.3859 38.476 86.3492 38.5561 85.26C38.5916 84.6303 38.4762 84.0012 38.2194 83.4251C37.9627 82.8491 37.5721 82.3426 37.0801 81.948C36.5281 81.6 25.9921 79.62 25.0801 79.548C23.4361 79.332 23.4481 81.78 25.9921 83.292C26.9401 83.868 29.5081 84.768 30.2281 86.64C30.2281 86.712 30.3241 87.06 30.5161 87.12C30.4321 87.96 30.3001 88.788 30.1561 89.616H28.1161C28.1161 89.616 25.8481 98.316 25.4401 99.036C23.7001 102.12 21.4681 105.144 21.0721 108.768C20.7121 111.888 21.8161 115.068 21.2161 118.152C20.6881 120.792 18.9841 122.952 17.7841 125.424C12.9841 134.868 18.2761 137.736 20.4241 142.32C21.9241 145.512 21.3241 149.028 23.2681 152.1C24.167 153.545 25.3664 154.779 26.7848 155.719C28.2031 156.659 29.8072 157.283 31.4881 157.548C35.3641 158.076 39.3001 156.612 43.1641 157.236C44.8164 157.589 46.4439 158.05 48.0361 158.616C53.0756 160.067 58.4407 159.925 63.3961 158.208C65.7961 157.38 68.0401 156.192 70.5241 155.952C73.4401 155.652 75.4561 156.54 78.1681 157.572C78.7081 159.084 80.1601 159.312 81.6361 159.78C87.6623 161.829 93.8766 163.276 100.188 164.1C97.7881 165.3 95.3881 166.236 93.5881 168.288C91.7232 170.376 90.7272 173.098 90.8041 175.896C91.0216 178.812 92.3333 181.538 94.4761 183.528C95.9184 184.87 97.0138 186.542 97.6681 188.4C98.01 189.922 98.5254 191.4 99.2041 192.804C99.8475 194.014 100.729 195.083 101.795 195.945C102.861 196.806 104.09 197.444 105.408 197.82C108.912 198.828 111.132 198.528 114.3 202.116C116.292 204.372 118.02 206.724 121.188 207.24C123.023 207.426 124.873 207.426 126.708 207.24C127.62 207.24 131.868 207.06 132.24 208.608C132.312 208.92 132.72 208.812 132.744 208.536C132.793 208.014 132.948 207.508 133.2 207.048C134.003 208.328 134.944 209.515 136.008 210.588C136.824 211.392 138.06 212.796 139.248 212.988C140.712 213.264 139.92 211.944 139.032 210.804C139.789 211.348 140.592 211.826 141.432 212.232C141.816 212.412 142.56 212.676 142.8 212.1C143.04 211.524 142.236 210.9 141.936 210.636C141.636 210.372 141.372 210.096 141.072 209.82C142.74 210.72 144.672 211.488 144.864 210.408C144.996 209.7 143.868 209.388 142.392 208.404C143.232 208.644 144.228 208.836 144.492 208.404C144.972 207.576 143.232 206.964 142.464 206.472C141.936 206.148 141.348 205.788 140.784 205.464C141.852 205.296 143.628 204.804 142.98 203.748C142.512 202.98 140.928 203.748 136.98 203.748C137.388 203.492 137.788 203.264 138.18 203.064C138.396 202.932 138.252 202.536 138 202.632C137.1 202.968 136.692 199.74 136.548 199.224C135.696 195.732 133.944 192.54 130.728 190.884C128.688 189.84 126.936 189.084 125.76 186.996C123.804 183.504 123.36 181.548 119.34 180.492C132.54 175.188 143.688 166.788 154.656 157.968C155.964 163.536 163.5 166.164 168.912 160.824C172.92 156.864 174.072 149.58 174.012 149.268C175.284 148.404 175.296 148.068 175.548 146.376C175.873 144.547 175.97 142.685 175.836 140.832C176.316 139.919 176.749 138.982 177.132 138.024C182.664 135.804 184.644 136.104 187.752 134.424C189.792 133.32 191.628 131.88 193.608 130.68C195.694 129.536 197.905 128.634 200.196 127.992C204.816 126.48 206.7 123.192 209.004 119.364C209.478 118.773 209.907 118.147 210.288 117.492C210.444 116.575 210.444 115.637 210.288 114.72C210.768 114.876 211.248 115.008 211.728 115.152C212.208 115.296 213.972 116.292 214.44 115.788C215.148 115.032 213.84 114.108 213 113.652C214.102 113.504 215.212 113.42 216.324 113.4C216.948 113.4 218.172 113.4 218.556 112.704C218.94 112.008 217.968 111.672 216.924 111.504C217.968 111.204 219.264 110.688 218.988 109.848ZM61.0321 70.248C61.2601 69.576 61.4761 68.892 61.6561 68.208C63.4542 68.6021 65.2043 69.1895 66.8761 69.96V71.292C63.0361 70.8 62.5321 70.452 61.0321 70.26V70.248ZM36.5041 89.928C35.1961 89.772 31.7041 89.616 30.6721 89.604C30.7921 88.836 30.8641 88.068 30.9121 87.3H31.0201C32.8977 87.4081 34.7572 87.7261 36.5641 88.248C36.5521 88.8 36.5281 89.376 36.5041 89.928ZM160.872 117.3C159.887 117.156 158.891 117.096 157.896 117.12C155.376 117.242 152.912 117.908 150.673 119.071C148.434 120.235 146.474 121.869 144.926 123.862C143.378 125.854 142.279 128.158 141.705 130.615C141.131 133.072 141.095 135.624 141.6 138.096C141.729 139.858 142.035 141.603 142.512 143.304C140.85 143.937 139.124 144.387 137.364 144.648C139.668 142.884 140.028 138.528 139.008 136.164C138.338 134.661 137.292 133.355 135.972 132.372C130.032 123.972 127.44 117.48 124.884 108.864C131.16 108.636 137.436 108.276 143.724 108.084C149.728 110.588 155.471 113.674 160.872 117.3ZM152.472 148.5C151.481 148.27 150.617 147.666 150.06 146.814C149.503 145.962 149.297 144.928 149.484 143.928C149.546 143.418 149.713 142.927 149.974 142.485C150.236 142.044 150.587 141.662 151.005 141.363C151.423 141.065 151.898 140.857 152.401 140.752C152.904 140.648 153.422 140.649 153.925 140.756C154.427 140.863 154.901 141.074 155.317 141.374C155.733 141.675 156.082 142.059 156.342 142.502C156.602 142.945 156.766 143.437 156.825 143.947C156.884 144.457 156.836 144.974 156.684 145.464C156.514 146.431 155.968 147.291 155.165 147.856C154.362 148.42 153.367 148.643 152.4 148.476L152.472 148.5ZM78.0001 122.46C79.156 120.206 80.5782 118.099 82.2361 116.184C96.7201 99.624 122.532 99.264 143.148 107.784C136.971 107.647 130.791 107.896 124.644 108.528C124.626 108.529 124.608 108.535 124.591 108.543C124.575 108.552 124.561 108.564 124.549 108.579C124.538 108.594 124.53 108.611 124.525 108.629C124.521 108.647 124.521 108.666 124.524 108.684C126.557 117.009 130.197 124.856 135.24 131.784C132.432 129.888 128.808 128.832 125.856 127.86C113.875 124.21 101.443 122.247 88.9201 122.028C86.1935 121.842 83.4915 122.647 81.3121 124.296C79.6063 125.64 78.3984 127.515 77.8801 129.624C76.0921 127.38 76.6801 125.04 78.0001 122.46ZM78.1321 129.984C78.6577 127.945 79.8226 126.128 81.4561 124.8C83.5828 123.135 86.2494 122.315 88.9441 122.496C99.4194 122.676 109.84 124.057 120 126.612C127.44 128.58 139.2 131.664 139.2 138.9C139.2 140.82 138.492 143.7 136.656 144.72C133.464 145.065 130.242 145.037 127.056 144.636C115.841 143.021 104.721 140.806 93.7441 138C88.4521 136.608 81.6001 134.172 78.1321 129.984ZM141.48 203.736C142.764 203.52 142.68 204.168 142.404 204.456C141.695 204.829 140.912 205.042 140.112 205.08C140.069 205.082 140.028 205.097 139.994 205.123C139.96 205.149 139.936 205.186 139.924 205.227C139.912 205.268 139.913 205.312 139.927 205.353C139.942 205.393 139.969 205.428 140.004 205.452C140.664 205.86 141.348 206.22 141.984 206.652C142.645 206.965 143.276 207.338 143.868 207.768C144.216 208.116 143.748 208.296 143.004 208.116C141.24 207.852 140.988 207.264 139.716 206.616C139.671 206.598 139.62 206.597 139.574 206.613C139.528 206.628 139.489 206.66 139.464 206.702C139.44 206.744 139.431 206.794 139.44 206.842C139.448 206.89 139.474 206.933 139.512 206.964C140.88 207.804 142.116 208.788 143.52 209.592C143.928 209.832 144.852 210.648 143.832 210.552C143.045 210.336 142.285 210.034 141.564 209.652C140.595 209.184 139.668 208.634 138.792 208.008C138.576 207.852 138.372 208.212 138.588 208.356C139.762 209.205 140.858 210.157 141.864 211.2C142.308 212.4 140.664 211.2 140.256 210.996C139.396 210.471 138.562 209.902 137.76 209.292C137.592 209.148 137.292 209.292 137.448 209.544C138.312 210.744 140.112 212.484 138.804 212.352C138.312 212.352 137.604 211.56 137.34 211.272C135.826 209.925 134.516 208.365 133.452 206.64C134.257 205.547 135.284 204.635 136.464 203.964C139.344 204 140.22 203.724 141.48 203.736ZM141.648 167.292C134.489 172.439 126.792 176.792 118.692 180.276C117.275 180.095 115.959 179.449 114.948 178.44C113.844 177.12 113.748 175.272 112.332 174.156C112.188 174.036 111.984 174.24 112.128 174.36C113.604 175.56 113.64 177.648 114.96 178.98C117.012 181.032 121.212 179.832 123.996 184.416C124.659 185.92 125.462 187.359 126.396 188.712C128.868 191.472 133.044 190.332 135.528 197.76C136.104 199.452 136.248 201.996 137.22 202.908C135.228 204.048 132.924 205.548 132.336 207.804C131.448 206.952 129.372 206.772 128.448 206.724C125.088 206.556 121.392 207.684 118.38 205.656C116.112 204.132 114.78 201.564 112.656 199.908C110.532 198.252 107.616 198.048 105.036 197.208C101.436 196.008 99.3841 193.008 98.4481 189.516C97.3081 185.232 96.7081 185.364 93.9601 182.172C92.7101 180.797 91.8683 179.1 91.5291 177.273C91.19 175.446 91.3669 173.56 92.0401 171.828C93.3121 168.6 95.8921 166.692 98.9161 165.228C101.604 163.92 103.872 162.696 105.468 160.08C106.335 158.392 107.564 156.917 109.068 155.76C110.731 154.646 112.694 154.064 114.696 154.092C114.729 154.083 114.757 154.063 114.778 154.036C114.798 154.009 114.809 153.976 114.809 153.942C114.809 153.908 114.798 153.875 114.778 153.848C114.757 153.821 114.729 153.801 114.696 153.792C111.98 153.753 109.358 154.788 107.4 156.672C105.492 158.544 104.868 161.676 100.776 163.776C94.9296 163.086 89.1656 161.82 83.5681 159.996C81.6721 159.396 78.8881 159.096 78.4321 156.84C78.2743 155.957 78.194 155.061 78.1921 154.164C77.963 146.716 78.3967 139.263 79.4881 131.892C86.0761 137.316 96.1321 139.2 104.388 140.976C111.18 142.44 118.032 143.784 124.932 144.756C128.459 145.315 132.039 145.464 135.6 145.2C140.016 149.148 141.264 152.868 141.36 157.284C141.6 159.996 141.792 163.692 141.6 167.292H141.648ZM145.62 164.388C146.82 156.576 146.34 149.928 141.936 143.832L142.608 143.58C144.168 148.752 146.76 150.876 149.808 151.98C149.563 152.636 149.458 153.336 149.499 154.035C149.54 154.735 149.726 155.418 150.045 156.041C150.365 156.664 150.811 157.214 151.355 157.655C151.898 158.097 152.528 158.42 153.204 158.604C150.72 160.512 148.188 162.468 145.62 164.4V164.388ZM168.516 160.548C162.732 166.224 154.896 162.612 154.584 156.156C154.576 156.132 154.561 156.111 154.54 156.096C154.52 156.081 154.495 156.073 154.47 156.073C154.445 156.073 154.42 156.081 154.4 156.096C154.379 156.111 154.364 156.132 154.356 156.156C154.358 156.627 154.402 157.097 154.488 157.56L153.552 158.292C152.259 157.816 151.144 156.953 150.36 155.82C150.035 155.243 149.843 154.601 149.8 153.941C149.756 153.28 149.861 152.618 150.108 152.004C153.528 153.096 155.424 152.136 154.368 148.776C157.613 150.888 161.382 152.055 165.252 152.148C165.252 152.148 165.852 149.64 167.952 150.024C168.756 150.168 169.512 151.62 170.004 151.584C170.505 151.441 170.971 151.196 171.372 150.864C172.125 150.423 172.854 149.943 173.556 149.424C172.536 153.432 171.6 157.524 168.516 160.548ZM174.996 147.276C174.6 148.692 170.988 150.876 170.544 151.068C169.704 151.344 169.824 151.068 169.344 150.612C168.925 150.129 168.34 149.82 167.705 149.746C167.07 149.673 166.43 149.841 165.912 150.216C165.497 150.671 165.171 151.2 164.952 151.776C164.952 151.776 162.348 151.632 161.544 151.464C158.992 150.903 156.556 149.904 154.344 148.512C154.922 148.273 155.438 147.905 155.853 147.438C156.268 146.97 156.571 146.414 156.74 145.812C156.909 145.21 156.938 144.577 156.827 143.962C156.715 143.347 156.465 142.765 156.096 142.26C161.328 145.752 167.964 144.42 173.772 141.96C174.18 141.792 175.068 141.12 175.452 141.408C175.527 143.375 175.374 145.344 174.996 147.276ZM208.38 119.292C206.808 121.884 205.272 124.788 202.596 126.396C199.92 128.004 196.884 128.268 194.196 129.732C191.256 131.376 188.724 133.68 185.568 134.952C183.876 135.624 182.088 135.828 180.396 136.452C179.304 136.86 178.212 137.244 177.096 137.652C177.553 136.071 177.72 134.42 177.588 132.78C177.041 130.187 175.977 127.73 174.46 125.557C172.942 123.384 171.002 121.539 168.756 120.132C172.032 118.404 173.844 116.772 178.356 116.64C180.12 116.64 181.872 117 183.636 116.928C189.252 116.664 189.636 110.58 204.288 110.808C204.912 110.808 207.408 110.448 207.888 110.544C208.932 110.76 209.736 113.916 209.82 115.416C209.88 117.108 209.208 117.924 208.38 119.292ZM215.04 111.396C215.012 111.389 214.982 111.388 214.953 111.394C214.925 111.4 214.898 111.412 214.875 111.43C214.852 111.448 214.833 111.471 214.82 111.498C214.807 111.524 214.8 111.553 214.8 111.582C214.8 111.611 214.807 111.64 214.82 111.666C214.833 111.693 214.852 111.716 214.875 111.734C214.898 111.752 214.925 111.764 214.953 111.77C214.982 111.776 215.012 111.775 215.04 111.768C215.616 111.768 218.64 111.768 217.692 112.716C217.092 113.352 211.86 112.716 212.124 113.592C212.13 113.621 212.145 113.648 212.166 113.67C212.188 113.691 212.215 113.706 212.244 113.712C212.364 113.712 214.248 114.66 213.912 115.404C213.804 115.668 210.888 114.492 210.072 114.204C209.826 112.945 209.389 111.731 208.776 110.604C209.831 109.583 210.998 108.685 212.256 107.928C212.811 107.508 213.437 107.191 214.104 106.992C215.904 106.752 213.924 108.192 213.492 108.552C213.348 108.66 213.492 108.924 213.672 108.864C214.032 108.708 216.384 107.58 216.768 107.844C217.704 108.492 214.44 109.788 214.212 109.884C214.183 109.884 214.154 109.892 214.128 109.905C214.102 109.918 214.08 109.937 214.062 109.96C214.044 109.984 214.032 110.01 214.027 110.039C214.021 110.068 214.022 110.097 214.03 110.125C214.037 110.154 214.051 110.18 214.07 110.202C214.089 110.224 214.113 110.241 214.14 110.253C214.167 110.264 214.196 110.269 214.225 110.268C214.254 110.266 214.283 110.258 214.308 110.244C215.54 109.942 216.808 109.809 218.076 109.848C218.82 110.796 215.34 111.372 215.04 111.396ZM163.512 34.884C163.752 34.5264 163.874 34.1028 163.861 33.6725C163.848 33.2421 163.701 32.8266 163.44 32.484C163.278 32.3175 163.08 32.19 162.862 32.1109C162.643 32.0319 162.41 32.0034 162.179 32.0277C161.948 32.0519 161.725 32.1283 161.528 32.251C161.331 32.3737 161.164 32.5395 161.04 32.736L160.188 32.136C160.992 31.824 164.52 30.36 165.06 27.792C165.081 27.5887 165.053 27.3832 164.978 27.1932C164.902 27.0031 164.783 26.8339 164.628 26.7C163.104 25.848 158.412 27.084 153.552 28.608L150 26.712C150.202 26.2609 150.271 25.7614 150.199 25.2724C150.127 24.7834 149.916 24.3252 149.592 23.952C148.548 23.112 147.54 23.868 147.12 24.912C145.8 23.928 138.996 20.364 137.688 20.904C136.38 21.444 138.048 23.304 138.888 24.204C140.964 26.172 144.456 28.848 146.604 30.492C141.199 31.9619 135.919 33.8558 130.812 36.156C130.308 35.34 127.452 32.832 126.948 32.976C126.444 33.12 126.552 34.116 127.512 38.232C127.728 39.144 127.908 39.852 128.52 40.212C128.916 40.44 135.384 39.072 137.064 38.652C141.588 37.452 144.864 37.224 152.448 34.752C158.364 36.528 165.024 40.272 165.888 37.728C166.212 37.008 165.24 35.88 163.512 34.884ZM134.616 36.948C133.98 36.804 133.692 35.748 134.436 35.52C134.639 35.4586 134.856 35.4627 135.056 35.5316C135.256 35.6005 135.43 35.7308 135.552 35.904C135.598 36.0391 135.607 36.1841 135.579 36.324C135.55 36.4639 135.485 36.5937 135.39 36.7C135.294 36.8063 135.172 36.8853 135.036 36.9289C134.901 36.9725 134.755 36.9791 134.616 36.948ZM138.444 35.46C136.932 35.184 138.804 33.228 139.452 34.356C139.716 34.92 139.116 35.568 138.444 35.46ZM141.264 34.56C140.676 35.1 139.764 34.692 139.944 33.984C140.008 33.8318 140.116 33.7018 140.254 33.6105C140.391 33.5191 140.553 33.4704 140.718 33.4704C140.883 33.4704 141.045 33.5191 141.183 33.6105C141.32 33.7018 141.428 33.8318 141.492 33.984C141.499 34.0908 141.481 34.1978 141.442 34.2973C141.403 34.3968 141.342 34.4865 141.264 34.56ZM144 33.6C143.688 34.344 141.804 34.104 142.344 32.964C142.872 32.1 144.696 32.544 144 33.6ZM149.796 26.4C149.728 26.6858 149.565 26.9402 149.334 27.1222C149.103 27.3043 148.818 27.4032 148.524 27.4032C148.23 27.4032 147.945 27.3043 147.714 27.1222C147.483 26.9402 147.321 26.6858 147.252 26.4C146.88 25.2 148.104 23.16 149.412 24.18C149.676 24.4779 149.854 24.8415 149.928 25.2322C150.001 25.623 149.968 26.0264 149.832 26.4H149.796ZM162 35.328C161.737 35.2187 161.508 35.0421 161.335 34.816C161.162 34.5899 161.052 34.3222 161.016 34.04C160.979 33.7578 161.018 33.4709 161.127 33.2083C161.237 32.9457 161.414 32.7165 161.64 32.544C161.781 32.4441 161.941 32.3757 162.11 32.3433C162.279 32.311 162.454 32.3154 162.621 32.3564C162.788 32.3974 162.945 32.474 163.08 32.5809C163.215 32.6878 163.326 32.8225 163.404 32.976C163.932 34.224 162.936 35.532 162 35.328Z" fill="#101112"/>
</svg>
