<svg width="202" height="20" viewBox="0 0 202 20" fill="none" xmlns="http://www.w3.org/2000/svg">
<path fill-rule="evenodd" clip-rule="evenodd" d="M113.692 2.18623C112.575 0.728728 110.88 0 108.611 0C106.287 0 104.372 0.629766 102.864 1.88934C101.357 3.13088 100.408 4.85833 100.018 7.07155L99.1928 11.8489C98.7849 14.2781 99.1218 16.2484 100.204 17.7598C101.303 19.2534 102.98 20 105.232 20C107.627 20 109.578 19.3703 111.084 18.1107C112.592 16.8511 113.541 15.0698 113.931 12.7666L114.757 7.98917C115.164 5.56002 114.809 3.62574 113.692 2.18623ZM104.301 7.44932C104.727 5.11015 105.977 3.94059 108.051 3.94059C109.045 3.94059 109.746 4.2735 110.154 4.93926C110.579 5.58701 110.695 6.46869 110.499 7.58427L109.648 12.5236C109.453 13.6392 109.027 14.5121 108.371 15.1418C107.715 15.7536 106.872 16.0594 105.844 16.0594C104.886 16.0594 104.194 15.7265 103.768 15.0607C103.342 14.377 103.228 13.4683 103.423 12.3347L104.301 7.44932Z" fill="#526ED3"/>
<path d="M7.40672 0.350814H3.65566C3.38962 0.350814 3.22989 0.49476 3.17668 0.782651L0.0108849 19.1363C-0.0423271 19.4782 0.0995606 19.6491 0.436537 19.6491H3.68223C4.00146 19.6491 4.17004 19.5053 4.18778 19.2173L4.79961 15.6276C5.38489 11.9389 5.79271 9.14977 6.02328 7.26043H6.15631C6.26272 7.81822 6.68838 9.55462 7.43329 12.4696L8.23147 15.2226C8.32015 15.4925 8.49755 15.6276 8.76359 15.6276H11.1845C11.4151 15.6276 11.5923 15.5196 11.7165 15.3037L13.4191 12.6045C14.8202 10.2834 15.8668 8.45703 16.5585 7.12548L16.6914 7.15242C15.8755 11.0571 15.317 13.9092 15.0155 15.7086L14.4302 19.1363C14.3948 19.4782 14.5366 19.6491 14.8559 19.6491H18.1014C18.3852 19.6491 18.5537 19.5053 18.607 19.2173L21.7727 0.863719C21.826 0.521795 21.6841 0.350814 21.3471 0.350814H17.463C17.2147 0.350814 17.0284 0.449777 16.9043 0.647702L13.9247 5.3172C13.091 6.6487 12.0092 8.51096 10.679 10.9041H10.5992C10.3509 9.71655 9.90745 7.87225 9.26896 5.37108L7.93883 0.755705C7.8679 0.485764 7.6905 0.350814 7.40672 0.350814Z" fill="#526ED3"/>
<path d="M29.376 0.350814H26.1038C25.82 0.350814 25.6515 0.49476 25.5982 0.782651L22.4059 19.1363C22.3704 19.4782 22.5123 19.6491 22.8315 19.6491H26.1303C26.3964 19.6491 26.556 19.5053 26.6091 19.2173L29.8017 0.863719C29.855 0.521795 29.713 0.350814 29.376 0.350814Z" fill="#526ED3"/>
<path d="M37.5907 0.350814H34.0791C33.7953 0.350814 33.6356 0.49476 33.6001 0.782651L30.4078 19.1363C30.3546 19.4782 30.4876 19.6491 30.8068 19.6491H34.0791C34.3451 19.6491 34.5048 19.5053 34.5579 19.2173L35.2497 15.1687C35.6043 13.1714 35.9413 10.5082 36.2606 7.17937L36.367 7.12548C36.8282 9.39268 37.4398 11.5341 38.2025 13.5493L40.3042 19.2712C40.4107 19.5231 40.588 19.6491 40.8364 19.6491H44.3213C44.6052 19.6491 44.7737 19.5053 44.827 19.2173L48.0193 0.863719C48.0725 0.521795 47.9306 0.350814 47.5936 0.350814H44.3481C44.0821 0.350814 43.9224 0.49476 43.8691 0.782651L43.0711 5.42502C42.6277 8.08807 42.2729 10.5802 42.0069 12.9015L41.8738 12.9284C41.3773 11.0211 40.8276 9.0868 40.2246 7.12548L38.1228 0.728717C38.0696 0.476813 37.8922 0.350814 37.5907 0.350814Z" fill="#526ED3"/>
<path fill-rule="evenodd" clip-rule="evenodd" d="M58.569 0.350814H52.3171C52.0334 0.350814 51.8736 0.49476 51.8382 0.782651L48.6458 19.1363C48.5926 19.4782 48.7256 19.6491 49.0449 19.6491H55.4031C57.7619 19.6491 59.642 19.1003 61.0431 18.0027C62.4619 16.905 63.3843 15.0787 63.81 12.5236L64.5814 8.07021C65.007 5.53311 64.6346 3.61673 63.464 2.32117C62.2934 1.00761 60.6619 0.350814 58.569 0.350814ZM53.4345 15.7355L55.4298 4.26441H58.0901C59.0477 4.26441 59.7129 4.52544 60.0854 5.04725C60.4578 5.55107 60.5465 6.37876 60.3514 7.53038L59.5267 12.3347C59.1187 14.6019 57.9659 15.7355 56.0682 15.7355H53.4345Z" fill="#526ED3"/>
<path d="M83.5287 0.350814H79.7776C79.5116 0.350814 79.3519 0.49476 79.2987 0.782651L76.1329 19.1363C76.0797 19.4782 76.2216 19.6491 76.5586 19.6491H79.8042C80.1235 19.6491 80.2919 19.5053 80.3096 19.2173L80.9216 15.6276C81.5069 11.9389 81.9147 9.14977 82.1452 7.26043H82.2783C82.3847 7.81822 82.8104 9.55462 83.5553 12.4696L84.3534 15.2226C84.4422 15.4925 84.6195 15.6276 84.8856 15.6276H87.3065C87.5371 15.6276 87.7144 15.5196 87.8384 15.3037L89.5411 12.6045C90.9422 10.2834 91.9886 8.45703 92.6804 7.12548L92.8134 7.15242C91.9975 11.0571 91.4388 13.9092 91.1373 15.7086L90.552 19.1363C90.5166 19.4782 90.6585 19.6491 90.9777 19.6491H94.2234C94.5071 19.6491 94.6757 19.5053 94.7289 19.2173L97.8947 0.863719C97.9479 0.521795 97.8061 0.350814 97.4691 0.350814H93.585C93.3366 0.350814 93.1504 0.449777 93.0263 0.647702L90.0466 5.3172C89.2131 6.6487 88.1311 8.51096 86.801 10.9041H86.7211C86.4728 9.71655 86.0294 7.87225 85.3909 5.37108L84.0608 0.755705C83.9899 0.485764 83.8125 0.350814 83.5287 0.350814Z" fill="#526ED3"/>
<path d="M123.169 0.350814H119.658C119.374 0.350814 119.214 0.49476 119.179 0.782651L115.986 19.1363C115.934 19.4782 116.066 19.6491 116.386 19.6491H119.658C119.924 19.6491 120.084 19.5053 120.136 19.2173L120.828 15.1687C121.183 13.1714 121.52 10.5082 121.839 7.17937L121.946 7.12548C122.407 9.39268 123.019 11.5341 123.782 13.5493L125.883 19.2712C125.989 19.5231 126.166 19.6491 126.415 19.6491H129.9C130.184 19.6491 130.353 19.5053 130.405 19.2173L133.598 0.863719C133.652 0.521795 133.51 0.350814 133.173 0.350814H129.927C129.66 0.350814 129.501 0.49476 129.448 0.782651L128.65 5.42502C128.206 8.08807 127.851 10.5802 127.586 12.9015L127.453 12.9284C126.956 11.0211 126.407 9.0868 125.804 7.12548L123.701 0.728717C123.649 0.476813 123.471 0.350814 123.169 0.350814Z" fill="#526ED3"/>
<path d="M148.856 0.350814H137.923C137.657 0.350814 137.497 0.49476 137.443 0.782651L134.225 19.1363C134.189 19.4782 134.331 19.6491 134.65 19.6491H146.01C146.293 19.6491 146.462 19.5053 146.516 19.2173L146.994 16.2752C147.03 15.9334 146.888 15.7625 146.568 15.7625H139.04L139.731 11.7408H146.143C146.409 11.7408 146.568 11.597 146.622 11.309L147.127 8.47493C147.181 8.13306 147.048 7.96221 146.728 7.96221H140.397L141.062 4.21051H148.298C148.564 4.21051 148.723 4.06657 148.777 3.77868L149.282 0.863719C149.336 0.521795 149.193 0.350814 148.856 0.350814Z" fill="#526ED3"/>
<path d="M154.61 0.350814H151.152C150.992 0.350814 150.876 0.404749 150.805 0.512709C150.735 0.602673 150.726 0.71977 150.78 0.863719L154.318 12.7126L153.147 19.1363C153.093 19.4782 153.235 19.6491 153.572 19.6491H156.898C157.164 19.6491 157.324 19.5053 157.376 19.2173L158.574 12.7934L166.103 0.917599C166.191 0.755663 166.209 0.620672 166.156 0.512709C166.103 0.404749 165.987 0.350814 165.81 0.350814H162.139C161.908 0.350814 161.731 0.458728 161.607 0.674647L157.084 8.71793H157.031L155.089 0.755705C155.036 0.485764 154.876 0.350814 154.61 0.350814Z" fill="#526ED3"/>
<path d="M184.19 0.350814H173.255C172.989 0.350814 172.829 0.49476 172.777 0.782651L169.557 19.1363C169.522 19.4782 169.664 19.6491 169.983 19.6491H181.343C181.627 19.6491 181.796 19.5053 181.848 19.2173L182.328 16.2752C182.363 15.9334 182.22 15.7625 181.902 15.7625H174.373L175.065 11.7408H181.476C181.742 11.7408 181.902 11.597 181.955 11.309L182.461 8.47493C182.513 8.13306 182.381 7.96221 182.062 7.96221H175.73L176.394 4.21051H183.631C183.897 4.21051 184.057 4.06657 184.11 3.77868L184.616 0.863719C184.668 0.521795 184.527 0.350814 184.19 0.350814Z" fill="#526ED3"/>
<path d="M191.645 0.350814H188.294C188.028 0.350814 187.868 0.49476 187.815 0.782651L185.846 11.9838C185.438 14.467 185.757 16.4192 186.804 17.8408C187.868 19.2622 189.491 19.973 191.672 19.973C194.014 19.973 195.876 19.3703 197.259 18.1647C198.661 16.9411 199.547 15.2137 199.919 12.9826L201.995 0.863719C202.03 0.521795 201.889 0.350814 201.569 0.350814H198.217C197.951 0.350814 197.791 0.49476 197.738 0.782651L195.716 12.6585C195.522 13.7561 195.122 14.5929 194.519 15.1687C193.933 15.7266 193.189 16.0055 192.284 16.0055C191.398 16.0055 190.75 15.7084 190.343 15.1146C189.935 14.5028 189.827 13.6212 190.023 12.4696L192.071 0.863719C192.125 0.521795 191.982 0.350814 191.645 0.350814Z" fill="#526ED3"/>
<path d="M73.9322 9.71657H67.441C67.175 9.71657 67.0152 9.86052 66.962 10.1485L66.4832 12.9015C66.43 13.2433 66.5631 13.4144 66.8823 13.4144H73.3735C73.6396 13.4144 73.7992 13.2793 73.8525 13.0095L74.3313 10.2295C74.3845 9.8876 74.2514 9.71657 73.9322 9.71657Z" fill="#526ED3"/>
<path d="M166.654 15.8974C166.263 15.3757 165.705 15.1146 164.978 15.1146C164.322 15.1146 163.773 15.3128 163.328 15.7086C162.885 16.0865 162.602 16.5902 162.477 17.22C162.336 17.9757 162.46 18.6145 162.85 19.1363C163.257 19.6581 163.817 19.9191 164.526 19.9191C165.2 19.9191 165.758 19.7301 166.202 19.3523C166.663 18.9564 166.947 18.4435 167.053 17.8138C167.178 17.0401 167.045 16.4013 166.654 15.8974Z" fill="#526ED3"/>
</svg>
