<svg
  width="444"
  height="176"
  viewBox="0 0 444 176"
  fill="transparent"
  xmlns="http://www.w3.org/2000/svg"
>
  <g clip-path="url(#clip0_427_26)">
    <path
      d="M0 16C0 7.16344 7.16344 0 16 0H428C436.837 0 444 7.16344 444 16V160C444 168.837 436.837 176 428 176H16C7.16343 176 0 168.837 0 160V16Z"
      fill="url(#paint0_linear_427_26)"
    />
    <path
      d="M-158 226H395C395 226 457.896 174.827 423.5 150C390.605 126.255 325.24 140.276 266 120C206.073 99.4877 166.281 41.4467 121.614 46.1118C54.421 53.1296 -8 161 -8 161L-158 226Z"
      fill="url(#paint1_linear_427_26)"
    />
    <path
      d="M475.687 259H2.64692C2.64692 259 -53.9426 202.054 -24.5205 166.806C3.6185 133.095 52.4161 109.46 101.196 119.638C159.613 131.825 195.098 190.2 233.307 196.823C290.784 206.786 392.187 77.4765 447.986 102.5C504.417 127.807 475.687 259 475.687 259Z"
      fill="url(#paint2_linear_427_26)"
    />

  </g>
  <defs>
    <linearGradient
      id="paint0_linear_427_26"
      x1="0"
      y1="176"
      x2="444"
      y2="7.41672e-06"
      gradientUnits="userSpaceOnUse"
    >
      <stop stop-color="#7088DE" />
      <stop offset="1" stop-color="#556BBB" />
    </linearGradient>
    <linearGradient
      id="paint1_linear_427_26"
      x1="-98.4997"
      y1="3.50044"
      x2="341.439"
      y2="192.804"
      gradientUnits="userSpaceOnUse"
    >
      <stop stop-color="#6B86E7" />
      <stop offset="1" stop-color="#A057DA" />
    </linearGradient>
    <linearGradient
      id="paint2_linear_427_26"
      x1="475.688"
      y1="-4.71691"
      x2="109.05"
      y2="453.865"
      gradientUnits="userSpaceOnUse"
    >
      <stop stop-color="#7A77E3" />
      <stop offset="1" stop-color="#7B63D9" />
    </linearGradient>

  </defs>
</svg>
