<svg
  width="444"
  height="176"
  viewBox="0 0 444 176"
  fill="none"
  xmlns="http://www.w3.org/2000/svg"
>
  <g clip-path="url(#clip0_427_25)">
    <path
      d="M0 16C0 7.16344 7.16344 0 16 0H428C436.837 0 444 7.16344 444 16V160C444 168.837 436.837 176 428 176H16C7.16343 176 0 168.837 0 160V16Z"
      fill="url(#paint0_linear_427_25)"
    />
    <path
      d="M558.785 226H5.78534C5.78534 226 -57.1102 174.827 -22.7148 149.999C10.1807 126.255 75.5459 140.276 134.785 119.999C194.713 99.4873 234.504 41.4462 279.172 46.1114C346.364 53.1292 408.785 161 408.785 161L558.785 226Z"
      fill="url(#paint1_linear_427_25)"
    />
    <path
      d="M-26.5948 245H417.405C417.405 245 470.521 191.88 442.905 159C416.493 127.554 370.691 105.507 324.906 115C270.076 126.369 236.769 180.822 200.906 187C146.957 196.294 51.7789 33.6573 -0.594147 56.9997C-53.5607 80.6067 -26.5948 245 -26.5948 245Z"
      fill="url(#paint2_linear_427_25)"
    />
  </g>
  <defs>
    <linearGradient
      id="paint0_linear_427_25"
      x1="0"
      y1="176"
      x2="444"
      y2="7.41672e-06"
      gradientUnits="userSpaceOnUse"
    >
      <stop stop-color="#BB5586" />
      <stop offset="1" stop-color="#D766EA" />
    </linearGradient>
    <linearGradient
      id="paint1_linear_427_25"
      x1="550.399"
      y1="-6.89071"
      x2="254.039"
      y2="474.503"
      gradientUnits="userSpaceOnUse"
    >
      <stop stop-color="#D9638E" />
      <stop offset="1" stop-color="#C777E3" />
    </linearGradient>
    <linearGradient
      id="paint2_linear_427_25"
      x1="15.237"
      y1="9.97539"
      x2="399.267"
      y2="138.007"
      gradientUnits="userSpaceOnUse"
    >
      <stop stop-color="#C25EA5" />
      <stop offset="1" stop-color="#8F56D8" />
    </linearGradient>
  </defs>
</svg>
